<?xml version="1.0" encoding="utf-8"?>
<!-- Generator: Adobe Illustrator 19.2.1, SVG Export Plug-In . SVG Version: 6.00 Build 0)  -->
<svg version="1.1" id="layer" xmlns="http://www.w3.org/2000/svg" xmlns:xlink="http://www.w3.org/1999/xlink" x="0px" y="0px"
	 viewBox="20 242.3 600 159.2" style="enable-background:new 0 0 652 652;" xml:space="preserve">
<style type="text/css">
	.st0{fill:#0F59D1;}
</style>
<path class="st0" d="M28.1,264l37.1,21.7L103,264l-37.8-21.7L28.1,264z"/>
<path class="st0" d="M111,277.6V321l-37.8,21.7v-43.4L111,277.6z"/>
<path class="st0" d="M73.2,358.1v43.4l50.4-28.7v-43.4L73.2,358.1z"/>
<path class="st0" d="M20,321l37.8,21.7v-43.4L20,277.6V321z"/>
<path class="st0" d="M20,379.8l37.8,21.7v-43.4L20,336.4V379.8z"/>
<path class="st0" d="M245.6,348.5c0,16.4-8.2,24.6-24.6,24.6h-51.8c-2,0-3.4-1.3-3.4-3.4v-88.6c0-2,1.3-3.4,3.4-3.4h46.3
	c16.4,0,24.6,8.2,24.6,24.6v2.7c0,13-9.5,15.7-9.5,15.7v0.7c0,0,15,2.7,15,18.4V348.5L245.6,348.5z M223.1,302.8
	c0-6.2-3.4-9.5-9.5-9.5h-30.7v21.1h30.7c6.2,0,9.5-3.4,9.5-9.5V302.8z M228.6,339.7c0-6.2-3.4-9.5-9.5-9.5h-36.1v27.3H219
	c6.2,0,9.5-3.4,9.5-9.5V339.7z"/>
<path class="st0" d="M320.6,369.7c0,2-1.3,3.4-3.4,3.4H309c-2,0-3.4-1.3-3.4-3.4v-3.4h-0.7c0,0-3.4,8.2-13.7,8.2H281
	c-13.7,0-20.4-6.8-20.4-20.4v-2c0-13.7,6.8-20.4,20.4-20.4h24.6v-6.8c0-5.5-3.4-8.9-8.9-8.9h-9.5c-4.8,0-7.5,2.7-7.5,7.5
	c0,2-1.3,3.4-3.4,3.4h-8.2c-2,0-3.4-1.3-3.4-3.4c0-13.7,7.5-21.1,21.8-21.1h12.3c14.4,0,21.8,7.5,21.8,21.8L320.6,369.7L320.6,369.7
	z M305.6,349.2v-4.8h-22.5c-4.8,0-7.5,2.7-7.5,7.5v1.3c0,4.8,2.7,7.5,7.5,7.5H294C300.8,360.8,305.6,356,305.6,349.2z"/>
<path class="st0" d="M401.8,369.7c0,2-1.3,3.4-3.4,3.4h-8.2c-2,0-3.4-1.3-3.4-3.4v-45c0-5.5-3.4-8.9-8.9-8.9h-11.6
	c-6.8,0-11.6,4.8-11.6,11.6v42.3c0,2-1.3,3.4-3.4,3.4H343c-2,0-3.4-1.3-3.4-3.4V307c0-2,1.3-3.4,3.4-3.4h8.2c2,0,3.4,1.3,3.4,3.4
	v3.4h0.7c0,0,3.4-8.2,13.7-8.2h10.9c14.4,0,21.8,7.5,21.8,21.8L401.8,369.7L401.8,369.7z"/>
<path class="st0" d="M467.2,349.9c0-2,1.3-3.4,3.4-3.4h8.2c2,0,3.4,1.3,3.4,3.4v2.7c0,14.4-7.5,21.8-21.8,21.8H442
	c-14.4,0-21.8-7.5-21.8-21.8V324c0-14.4,7.5-21.8,21.8-21.8h18.3c14.4,0,21.8,7.5,21.8,21.8v2.7c0,2-1.3,3.4-3.4,3.4h-8.2
	c-2,0-3.4-1.3-3.4-3.4v-2c0-5.5-3.4-8.9-8.9-8.9h-14.4c-5.5,0-8.9,3.4-8.9,8.9V352c0,5.5,3.4,8.9,8.9,8.9h14.4
	c5.5,0,8.9-3.4,8.9-8.9L467.2,349.9L467.2,349.9z"/>
<path class="st0" d="M498.6,324c0-14.4,7.5-21.8,21.8-21.8h19.7c14.4,0,21.8,7.5,21.8,21.8v28.6c0,14.4-7.5,21.8-21.8,21.8h-19.7
	c-14.4,0-21.8-7.5-21.8-21.8V324L498.6,324z M513.6,352c0,5.5,3.4,8.9,8.9,8.9h15.7c5.5,0,8.9-3.4,8.9-8.9v-27.3
	c0-5.5-3.4-8.9-8.9-8.9h-15.7c-5.5,0-8.9,3.4-8.9,8.9V352z"/>
<path class="st0" d="M616.6,302.2c2,0,3.4,1.3,3.4,3.4v7.5c0,2-1.3,3.4-3.4,3.4H607c-6.8,0-11.6,4.8-11.6,11.6v41.5
	c0,2-1.3,3.4-3.4,3.4h-8.2c-2,0-3.4-1.3-3.4-3.4V307c0-2,1.3-3.4,3.4-3.4h8.2c2,0,3.4,1.3,3.4,3.4v3.4h0.7c0,0,3.4-8.2,13.7-8.2
	H616.6L616.6,302.2z"/>
</svg>
